inDegrees=yes
name=ik_lifting_orientations
DataType=double
version=3
OpenSimVersion=4.5-2024-01-10-34fd6af
endheader
time	pelvis_tilt	pelvis_list	pelvis_rotation	pelvis_tx	pelvis_ty	pelvis_tz	hip_flexion_r	hip_adduction_r	hip_rotation_r	knee_angle_r	knee_angle_r_beta	ankle_angle_r	subtalar_angle_r	mtp_angle_r	hip_flexion_l	hip_adduction_l	hip_rotation_l	knee_angle_l	knee_angle_l_beta	ankle_angle_l	subtalar_angle_l	mtp_angle_l	lumbar_extension	lumbar_bending	lumbar_rotation	arm_flex_r	arm_add_r	arm_rot_r	elbow_flex_r	pro_sup_r	wrist_flex_r	wrist_dev_r	arm_flex_l	arm_add_l	arm_rot_l	elbow_flex_l	pro_sup_l	wrist_flex_l	wrist_dev_l
0.02	-0.001633816081480684	-0.0009414064882750338	-90.19432157470085	0	0.9399999998679526	0	45.04602578616314	-11.48125061866815	0	59.85993764477112	1.044753001939756	-5.658761150785381	0	0	45.04602578616314	-11.48125061866815	0	59.85993764477112	1.044753001939756	-5.658761150785381	0	0	-0.001766695647003982	0.0004028767872193323	-0.001618992283838	-0.2929822601531039	-0.06819904619030978	-0.007766176565851654	0.6122601291655129	3.005593607154239	0	0	0	-9.730656036558539	0	87.03587345510684	3.005593607154239	0	0
0.03	-0.03424089294050731	-0.03773107756782488	-90.415645049018	0	0.9399999998679526	0	45.04601152025537	-11.47964521178013	0	59.8599717664573	1.044753597475526	-5.657830881932433	0	0	45.04601152025537	-11.47964521178013	0	59.8599717664573	1.044753597475526	-5.657830881932433	0	0	0.3547536576543139	-0.3562478368168379	-0.004618229955169864	-0.6845892106355884	0.2686037163539642	0.1076641252715708	0.5407480957906819	3.004944639996462	0	0	0	-9.731494477485169	0	87.03651341315171	3.004944639996462	0	0
0.04	-0.05045699607976201	-0.05921028019706861	-90.51534709578688	0	0.9399999998679526	0	45.04599829957658	-11.4781644953401	0	59.86000348456793	1.044754151060989	-5.656973850681796	0	0	45.04599829957658	-11.4781644953401	0	59.86000348456793	1.044754151060989	-5.656973850681796	0	0	0.7861508862016443	-0.7893554677403237	-0.1869858886096989	-1.16372971284139	0.7228693638885421	0.4662275036657408	0.6467347616963715	3.004342469250334	0	0	0	-9.732273255220628	0	87.03710722454281	3.004342469250334	0	0
0.05	-0.06659161091386506	-0.07849804333609374	-90.52662411642179	0	0.9399999998679526	0	45.04598229524397	-11.47637614381387	0	59.86004193203598	1.044754822095896	-5.655939390454082	0	0	45.04598229524397	-11.47637614381387	0	59.86004193203598	1.044754822095896	-5.655939390454082	0	0	1.128603067046885	-1.131643144145374	-0.4936753622480257	-1.566680775688853	1.094307127549921	1.042818407855875	0.720896838488706	3.003613089185945	0	0	0	-9.733216993592904	0	87.03782647939722	3.003613089185945	0	0
0.06	-0.08654503217949172	-0.09873441479142295	-90.55265376327938	0	0.9399999998679526	0	45.04597242074116	-11.47526676438348	0	59.86006554478838	1.04475523421617	-5.655297073893328	0	0	45.04597242074116	-11.47526676438348	0	59.86006554478838	1.04475523421617	-5.655297073893328	0	0	1.247494200694069	-1.254795455696495	-0.4881850548393351	-1.741085507236522	1.235621901969544	1.389402984874523	0.8172578160091667	3.003163843289427	0	0	0	-9.73379741692516	0	87.03826948877023	3.003163843289427	0	0
0.07000000000000001	-0.09070025538332267	-0.0933123188230201	-90.50566645952219	0	0.9399999998679526	0	45.04596737269916	-11.47470123284666	0	59.86007764052313	1.044755445326567	-5.654969841889049	0	0	45.04596737269916	-11.47470123284666	0	59.86007764052313	1.044755445326567	-5.654969841889049	0	0	1.222094076327485	-1.23619372574012	-0.4246031493172098	-1.739184328000964	1.235788837104942	1.679185092182281	0.9646093422762143	3.002933994118196	0	0	0	-9.734094582168993	0	87.03849614715789	3.002933994118196	0	0
0.08	-0.08599170427162224	-0.09182347853672931	-90.44035622540054	0	0.9399999998679526	0	45.04596285911376	-11.47419644076851	0	59.86008846841192	1.044755634308878	-5.654677868350142	0	0	45.04596285911376	-11.47419644076851	0	59.86008846841192	1.044755634308878	-5.654677868350142	0	0	1.202555148923361	-1.220291754137659	-0.4019154347128125	-1.683424381794066	1.164200257435625	1.838581633739141	1.09939602420726	3.002728382033457	0	0	0	-9.734360517552748	0	87.03869890493579	3.002728382033457	0	0
0.09	-0.09020244504840369	-0.09650301125348416	-90.44555534982302	0	0.9399999998679526	0	45.04595688264698	-11.47352661141441	0	59.86010277639417	1.044755884030277	-5.654290318760972	0	0	45.04595688264698	-11.47352661141441	0	59.86010277639417	1.044755884030277	-5.654290318760972	0	0	1.178860858073961	-1.216196153064777	-0.4036825153304883	-1.691097992776685	1.072714873825514	2.06221225941437	1.328989918473495	3.002456334375571	0	0	0	-9.734712148859014	0	87.03896717599626	3.002456334375571	0	0
0.1	-0.0903808486291353	-0.1083810290384383	-90.49899653774952	0	0.9399999998679526	0	45.04594945045249	-11.47269272825128	0	59.86012054744974	1.044756194193708	-5.653807808332001	0	0	45.04594945045249	-11.47269272825128	0	59.86012054744974	1.044756194193708	-5.653807808332001	0	0	1.16631255874127	-1.210060206248751	-0.3589428043975722	-1.784259554178719	0.9720018020846488	2.249041371757507	1.623054035751921	3.002118169243827	0	0	0	-9.735149070031675	0	87.03930064665747	3.002118169243827	0	0
0.11	-0.1086909615790976	-0.1343454780709525	-90.77564869919291	0	0.9399999998679526	0	45.04593788932268	-11.47139952966683	0	59.86014824647889	1.044756677632967	-5.653060063493076	0	0	45.04593788932268	-11.47139952966683	0	59.86014824647889	1.044756677632967	-5.653060063493076	0	0	1.163215882421569	-1.180338458755491	-0.02570565522555577	-1.988090625066168	0.9094047172126426	2.433137445402437	1.962378318836389	3.001591708072498	0	0	0	-9.735829733743596	0	87.03981979946623	3.001591708072498	0	0
0.12	-0.1117876850785516	-0.1326241168257654	-91.03796541922421	0	0.9399999998679526	0	45.04592882066601	-11.47039007589987	0	59.86017004741913	1.044757058131154	-5.652477024405253	0	0	45.04592882066601	-11.47039007589987	0	59.86017004741913	1.044757058131154	-5.652477024405253	0	0	1.154901151762019	-1.171826122448807	0.1687201279599414	-2.10939432050091	0.844937744860714	2.79493614574938	2.288592391870463	3.001178186586729	0	0	0	-9.736364979908316	0	87.04022758051296	3.001178186586729	0	0
